#!OML:ASF E:\emotionWalksFemale\Project 1\Capture day 1\Session 1\Female1.ASF
:FULLY-SPECIFIED
:DEGREES
2549
root 10.5853 15.1079 8.75764 14.0657 -32.6487 -8.13734
lowerback 24.45 3.92368 -3.01755
upperback 0.78694 4.33571 0.651839
thorax -13.1142 2.16671 0.947302
lowerneck -5.95407 10.4044 4.77543
upperneck -12.1665 13.4903 -3.79372
head -2.2881 6.6208 -1.95433
rclavicle -9.93923e-016 -1.51076e-014
rhumerus -34.0916 3.12648 -80.8795
rradius 46.6991
rwrist 1.77639
rhand -1.26089 -46.5893
rfingers 7.12502
rthumb 24.3821 -75.0581
lclavicle -9.93923e-016 -1.51076e-014
lhumerus -33.5306 17.2906 65.9181
lradius 36.016
lwrist -14.5192
lhand -7.9136 -31.9331
lfingers 7.12502
lthumb 17.992 -2.74531
rfemur -2.17129 -1.2083 22.265
rtibia 28.6487
rfoot -20.139 -36.7396
rtoes 29.0987
lfemur -41.0577 -0.0362844 -8.00138
ltibia 36.6453
lfoot -19.3235 14.5047
ltoes -13.6857
2550
root 10.5993 15.13 8.86212 14.3059 -32.4607 -8.113
lowerback 24.3773 3.86724 -3.31074
upperback 0.756024 4.16087 0.487779
thorax -13.1095 2.09969 0.993298
lowerneck -5.58726 10.6657 5.16379
upperneck -12.5168 13.8321 -4.06025
head -2.40925 6.7816 -2.13137
rclavicle -5.96354e-016 -2.3059e-014
rhumerus -34.5408 3.69239 -81.3854
rradius 46.1549
rwrist 2.53459
rhand -0.937982 -46.577
rfingers 7.12502
rthumb 24.6917 -75.0038
lclavicle -5.96354e-016 -2.3059e-014
lhumerus -32.636 16.8401 66.2107
lradius 36.3307
lwrist -14.1079
lhand -8.02155 -32.161
lfingers 7.12502
lthumb 17.8881 -2.96364
rfemur -2.79012 -2.17611 22.2884
rtibia 29.0383
rfoot -19.7707 -36.3693
rtoes 27.5137
lfemur -41.1024 0.0578024 -8.40663
ltibia 36.7242
lfoot -19.8146 14.2278
ltoes -13.0217
2551
root 10.6146 15.151 8.95262 14.4889 -32.2013 -8.02
lowerback 24.3942 3.95928 -3.39389
upperback 0.461789 4.25 0.396187
thorax -13.4669 2.14738 0.892228
lowerneck -4.37373 10.3983 4.89327
upperneck -12.9009 13.5804 -3.79105
head -2.79801 6.6605 -2.11465
rclavicle 5.96354e-014 -1.03368e-014
rhumerus -35.8476 3.77807 -81.3772
rradius 45.6135
rwrist 3.71635
rhand -0.618765 -47.0513
rfingers 7.12502
rthumb 24.9976 -75.4359
lclavicle 5.96354e-014 -1.03368e-014
lhumerus -32.0719 15.7183 66.8769
lradius 36.5393
lwrist -13.7783
lhand -8.18407 -32.3683
lfingers 7.12502
lthumb 17.7317 -3.15674
rfemur -3.4233 -2.95111 22.3799
rtibia 29.3667
rfoot -19.1536 -35.9809
rtoes 25.9408
lfemur -41.1577 0.164471 -8.86437
ltibia 36.7351
lfoot -20.2244 13.8138
ltoes -12.3242
2552
root 10.625 15.1747 9.04657 14.6577 -31.9285 -8.05056
lowerback 24.5615 3.88258 -3.74191
upperback 0.561059 4.02563 0.283505
thorax -13.4481 2.06035 1.0385
lowerneck -5.15837 10.5152 4.84038
upperneck -12.6326 13.7312 -3.33984
head -2.60193 6.7254 -1.89745
rclavicle -1.07344e-013 8.74653e-015
rhumerus -35.9412 4.04492 -81.8245
rradius 44.9111
rwrist 5.33862
rhand 0.149345 -47.6004
rfingers 7.12502
rthumb 25.7334 -75.8805
lclavicle -1.07344e-013 8.74653e-015
lhumerus -30.9313 15.0784 67.1786
lradius 36.7603
lwrist -13.1221
lhand -8.74024 -32.7479
lfingers 7.12502
lthumb 17.1965 -3.48884
rfemur -3.92943 -3.50898 22.6636
rtibia 29.6275
rfoot -18.4937 -35.7017
rtoes 22.9144
lfemur -41.0773 0.294878 -9.19934
ltibia 36.6787
lfoot -20.7562 13.3217
ltoes -10.9014
2553
root 10.6286 15.202 9.1471 14.8408 -31.6431 -8.06691
lowerback 24.4009 3.8262 -3.95419
upperback 0.508014 3.88718 0.185473
thorax -13.4205 2.00914 1.10383
lowerneck -4.65578 10.6025 4.67003
upperneck -12.9192 13.9116 -3.08232
head -2.81138 6.81263 -1.8399
rclavicle -5.88403e-014 1.03368e-014
rhumerus -36.6068 4.36371 -82.1565
rradius 44.4846
rwrist 6.66193
rhand 0.736926 -47.7967
rfingers 7.12502
rthumb 26.296 -75.9942
lclavicle -5.88403e-014 1.03368e-014
lhumerus -30.2003 14.1486 67.4893
lradius 36.9652
lwrist -12.5371
lhand -9.08947 -33.228
lfingers 7.12502
lthumb 16.8603 -3.93991
rfemur -4.36272 -4.03174 22.9495
rtibia 29.7166
rfoot -18.1767 -35.3788
rtoes 24.4524
lfemur -40.9546 0.442866 -9.56884
ltibia 36.5984
lfoot -21.3197 12.8397
ltoes -9.67278
2554
root 10.6299 15.2327 9.24603 15.0714 -31.4341 -8.05979
lowerback 24.2685 3.7422 -4.34596
upperback 0.670024 3.65639 0.0639728
thorax -13.1608 1.92002 1.28414
lowerneck -5.29883 10.807 4.39519
upperneck -12.9293 14.1893 -2.7414
head -2.73987 6.95236 -1.64817
rclavicle -7.39479e-014 7.95139e-015
rhumerus -36.6482 5.06073 -82.6415
rradius 44.0097
rwrist 7.6695
rhand 1.69041 -48.2135
rfingers 7.12502
rthumb 27.2085 -76.2714
lclavicle -7.39479e-014 7.95139e-015
lhumerus -28.8206 13.939 67.6798
lradius 36.9404
lwrist -12.2448
lhand -9.20984 -33.6133
lfingers 7.12502
lthumb 16.7444 -4.31545
rfemur -4.85317 -4.42212 23.2286
rtibia 29.7412
rfoot -17.5246 -35.2145
rtoes 24.5091
lfemur -40.8614 0.606226 -9.94592
ltibia 36.5364
lfoot -21.8356 12.4785
ltoes -9.01746
2555
root 10.6316 15.2612 9.34977 15.2156 -31.3071 -8.22214
lowerback 24.0792 3.71857 -4.49807
upperback 0.607997 3.58452 -0.00970275
thorax -13.1282 1.89595 1.3192
lowerneck -4.29159 10.8802 4.26553
upperneck -13.3831 14.3707 -2.61225
head -3.08585 7.03876 -1.6826
rclavicle -3.37934e-014 -2.38542e-015
rhumerus -37.5974 5.72295 -83.0381
rradius 43.7513
rwrist 8.55338
rhand 2.93228 -48.6098
rfingers 7.12502
rthumb 28.3958 -76.4759
lclavicle -3.37934e-014 -2.38542e-015
lhumerus -28.2258 13.2437 67.8329
lradius 37.159
lwrist -11.9081
lhand -9.61327 -33.7124
lfingers 7.12502
lthumb 16.356 -4.38205
rfemur -5.13536 -4.63068 23.6407
rtibia 29.7226
rfoot -16.8891 -35.2204
rtoes 20.9472
lfemur -40.5748 0.566515 -10.0582
ltibia 36.5355
lfoot -22.3695 12.4176
ltoes -8.63376
2556
root 10.6381 15.2787 9.42935 15.8375 -30.5905 -8.33619
lowerback 23.8472 3.37941 -4.62636
upperback 0.658507 3.10573 -0.111405
thorax -12.9087 1.68044 1.45838
lowerneck -4.96562 11.2333 4.19213
upperneck -13.2536 14.8381 -2.33528
head -2.9378 7.26979 -1.53019
rclavicle 3.77691e-014 -3.89618e-014
rhumerus -37.6274 6.34118 -83.616
rradius 43.3265
rwrist 9.39131
rhand 3.19208 -48.6206
rfingers 7.12502
rthumb 28.6441 -76.445
lclavicle 3.77691e-014 -3.89618e-014
lhumerus -26.9752 13.0598 67.7735
lradius 37.3102
lwrist -11.6693
lhand -10.0116 -33.7479
lfingers 7.12502
lthumb 15.9725 -4.38648
rfemur -6.04779 -5.24235 24.2587
rtibia 29.7583
rfoot -17.6682 -34.944
rtoes 25.1249
lfemur -41.1798 0.233601 -10.0753
ltibia 36.5859
lfoot -22.386 12.2629
ltoes -9.40452
2557
root 10.6422 15.2926 9.51759 16.2132 -30.0125 -8.54402
lowerback 23.6559 3.10267 -4.6044
upperback 0.708137 2.74826 -0.211413
thorax -12.713 1.51002 1.46651
lowerneck -5.22444 11.4733 4.24341
upperneck -13.1708 15.1807 -1.97611
head -2.88235 7.42933 -1.4039
rclavicle -2.18663e-014 5.48646e-014
rhumerus -37.9592 6.84342 -84.1643
rradius 42.8916
rwrist 10.3077
rhand 2.68002 -48.5845
rfingers 7.12502
rthumb 28.1548 -76.4905
lclavicle -2.18663e-014 5.48646e-014
lhumerus -25.8375 12.7587 67.672
lradius 37.2615
lwrist -11.5521
lhand -10.2352 -33.8845
lfingers 7.12502
lthumb 15.7572 -4.50587
rfemur -6.61 -5.78514 24.8912
rtibia 29.8119
rfoot -18.5553 -34.4736
rtoes 27.4976
lfemur -41.403 0.0089908 -10.0229
ltibia 36.7106
lfoot -22.7541 11.9435
ltoes -9.73606
2558
root 10.6475 15.3075 9.60662 16.4607 -29.5467 -8.79203
lowerback 23.5465 3.00234 -4.36028
upperback 0.545207 2.68828 -0.221972
thorax -12.8244 1.47273 1.3352
lowerneck -4.2353 11.3717 4.09939
upperneck -13.5063 15.1288 -1.83835
head -3.19556 7.39759 -1.43167
rclavicle -2.26615e-014 -2.22639e-014
rhumerus -39.0343 7.18771 -84.3501
rradius 42.6879
rwrist 11.0158
rhand 2.65686 -48.5012
rfingers 7.12502
rthumb 28.1326 -76.4108
lclavicle -2.26615e-014 -2.22639e-014
lhumerus -25.2175 12.0591 67.9254
lradius 37.286
lwrist -11.5395
lhand -10.3822 -34.0375
lfingers 7.12502
lthumb 15.6155 -4.64776
rfemur -7.08893 -6.26964 25.5307
rtibia 29.9332
rfoot -18.0451 -34.4397
rtoes 27.7309
lfemur -41.4165 -0.234607 -9.93225
ltibia 36.8707
lfoot -23.2136 11.6976
ltoes -10.1242
2559
root 10.6521 15.3226 9.69293 16.69 -29.2063 -8.96068
lowerback 23.6043 2.85419 -4.48374
upperback 0.544204 2.45048 -0.273128
thorax -12.8458 1.36995 1.42822
lowerneck -4.18619 11.505 4.18979
upperneck -13.6181 15.3087 -1.89938
head -3.22676 7.48425 -1.47248
rclavicle 2.78299e-015 2.54444e-014
rhumerus -39.4317 7.82013 -84.7487
rradius 42.3288
rwrist 11.1851
rhand 3.05761 -48.1643
rfingers 7.12502
rthumb 28.5156 -76.0103
lclavicle 2.78299e-015 2.54444e-014
lhumerus -24.3833 11.8494 67.904
lradius 37.4335
lwrist -11.4302
lhand -10.6984 -34.3126
lfingers 7.12502
lthumb 15.311 -4.89934
rfemur -7.61601 -6.81687 26.0551
rtibia 29.9958
rfoot -17.5296 -34.3987
rtoes 27.8423
lfemur -41.4492 -0.477459 -9.91829
ltibia 37.0657
lfoot -23.5756 11.5902
ltoes -10.6107
2560
root 10.6552 15.3366 9.77758 16.8615 -28.8439 -9.13276
lowerback 23.6806 2.63006 -4.69676
upperback 0.655397 2.08173 -0.373325
thorax -12.7389 1.20684 1.56485
lowerneck -4.6851 11.7021 4.42727
upperneck -13.4009 15.5538 -1.72334
head -3.05477 7.59585 -1.40371
rclavicle -7.39479e-014 1.59028e-015
rhumerus -39.5983 8.4615 -85.2925
rradius 41.867
rwrist 11.0659
rhand 3.68353 -47.9748
rfingers 7.12502
rthumb 29.1135 -75.7189
lclavicle -7.39479e-014 1.59028e-015
lhumerus -23.4334 11.7313 67.6557
lradius 37.565
lwrist -11.0659
lhand -11.3608 -34.7629
lfingers 7.12502
lthumb 14.6729 -5.30207
rfemur -8.03984 -7.20693 26.6116
rtibia 30.0021
rfoot -18.167 -34.1491
rtoes 28.2963
lfemur -41.4556 -0.782824 -9.85204
ltibia 37.269
lfoot -23.9065 11.4957
ltoes -10.87
2561
root 10.6595 15.3454 9.85684 17.0025 -28.3033 -9.37415
lowerback 23.8047 2.50779 -4.47677
upperback 0.574011 1.97411 -0.371936
thorax -12.8869 1.14791 1.4727
lowerneck -4.4182 11.634 4.07181
upperneck -13.2812 15.533 -1.24145
head -3.13084 7.5868 -1.22242
rclavicle 4.05521e-014 1.43125e-014
rhumerus -40.5866 8.74894 -85.4071
rradius 41.8036
rwrist 10.6337
rhand 4.07942 -48.0028
rfingers 7.12502
rthumb 29.4915 -75.6809
lclavicle 4.05521e-014 1.43125e-014
lhumerus -22.7681 11.2156 67.8775
lradius 37.6548
lwrist -10.7979
lhand -11.9848 -35.2802
lfingers 7.12502
lthumb 14.0717 -5.77662
rfemur -8.40905 -7.54346 27.3081
rtibia 29.9547
rfoot -18.4604 -34.1281
rtoes 29.0935
lfemur -41.4686 -1.07957 -9.72112
ltibia 37.4782
lfoot -24.265 11.3304
ltoes -10.7192
